<?xml version="1.0" standalone="no"?>
<!DOCTYPE svg PUBLIC "-//W3C//DTD SVG 20010904//EN"
 "http://www.w3.org/TR/2001/REC-SVG-20010904/DTD/svg10.dtd">
<svg version="1.0" xmlns="http://www.w3.org/2000/svg"
 width="512.000000pt" height="512.000000pt" viewBox="0 0 512.000000 512.000000"
 preserveAspectRatio="xMidYMid meet">

<g transform="translate(0.000000,512.000000) scale(0.100000,-0.100000)"
fill="#E6D2AA" stroke="none">
<path d="M893 4480 l-192 -320 657 0 657 0 60 298 c32 163 61 307 63 320 l4
22 -528 0 -529 0 -192 -320z"/>
<path d="M2245 4503 c-32 -164 -61 -308 -63 -320 l-4 -23 382 0 382 0 -4 23
c-2 12 -31 156 -63 320 l-60 297 -255 0 -255 0 -60 -297z"/>
<path d="M2982 4778 c2 -13 31 -157 63 -320 l60 -298 657 0 657 0 -192 320
-192 320 -529 0 -528 0 4 -22z"/>
<path d="M640 2560 l0 -1440 1920 0 1920 0 0 1440 0 1440 -680 0 -680 0 0
-455 0 -456 -25 -24 -24 -25 -511 0 -511 0 -24 25 -25 24 0 456 0 455 -680 0
-680 0 0 -1440z m2375 55 l25 -24 0 -234 c0 -259 -7 -312 -50 -405 -55 -118
-200 -236 -316 -258 l-34 -6 0 -124 0 -124 135 0 c131 0 137 -1 160 -25 33
-32 33 -78 0 -110 l-24 -25 -351 0 -351 0 -24 25 c-33 32 -33 78 0 110 23 24
29 25 160 25 l135 0 0 124 0 124 -32 6 c-107 20 -251 130 -306 234 -55 103
-62 150 -62 420 l0 243 25 24 24 25 431 0 431 0 24 -25z m-1558 -358 c125
-125 143 -147 143 -175 0 -43 -38 -82 -80 -82 -25 0 -45 13 -96 62 l-64 61 0
-341 0 -342 95 0 c88 0 98 -2 120 -25 33 -32 33 -78 0 -110 l-24 -25 -271 0
-271 0 -24 25 c-33 32 -33 78 0 110 22 23 32 25 120 25 l95 0 0 342 0 342 -57
-56 c-32 -31 -68 -59 -81 -63 -54 -16 -112 42 -99 97 4 13 69 85 145 161 183
181 162 182 349 -6z m2560 0 c125 -125 143 -147 143 -175 0 -43 -38 -82 -80
-82 -25 0 -45 13 -96 62 l-64 61 0 -341 0 -342 95 0 c88 0 98 -2 120 -25 33
-32 33 -78 0 -110 l-24 -25 -271 0 -271 0 -24 25 c-16 15 -25 36 -25 55 0 19
9 40 25 55 22 23 32 25 120 25 l95 0 0 342 0 342 -57 -56 c-32 -31 -68 -59
-81 -63 -54 -16 -112 42 -99 97 4 13 69 85 145 161 183 181 162 182 349 -6z"/>
<path d="M2242 2278 c3 -186 5 -207 26 -248 35 -71 75 -114 144 -151 58 -31
70 -34 148 -34 78 0 90 3 148 34 70 38 100 69 140 145 26 50 27 57 30 254 l4
202 -64 0 c-61 0 -65 -2 -103 -40 l-39 -40 37 0 c49 0 87 -36 87 -82 0 -28
-18 -50 -143 -175 -125 -125 -147 -143 -175 -143 -43 0 -82 38 -82 80 0 25 13
45 62 96 l61 64 -37 0 c-48 0 -86 36 -86 80 0 25 13 45 62 96 l61 64 -142 0
-143 0 4 -202z"/>
<path d="M2160 3600 l0 -400 400 0 400 0 0 400 0 400 -400 0 -400 0 0 -400z"/>
<path d="M320 800 l0 -160 200 0 200 0 0 -160 0 -160 240 0 240 0 0 160 0 160
1360 0 1360 0 0 -160 0 -160 240 0 240 0 0 160 0 160 200 0 200 0 0 160 0 160
-2240 0 -2240 0 0 -160z"/>
</g>
</svg>
