<?xml version="1.0" standalone="no"?>
<!DOCTYPE svg PUBLIC "-//W3C//DTD SVG 20010904//EN"
 "http://www.w3.org/TR/2001/REC-SVG-20010904/DTD/svg10.dtd">
<svg version="1.0" xmlns="http://www.w3.org/2000/svg"
 width="512.000000pt" height="512.000000pt" viewBox="0 0 512.000000 512.000000"
 preserveAspectRatio="xMidYMid meet">

<g transform="translate(0.000000,512.000000) scale(0.100000,-0.100000)"
fill="#E6D2AA" stroke="none">
<path d="M1822 4729 c-76 -13 -242 -69 -242 -83 0 -6 20 -45 45 -86 25 -41 45
-84 45 -95 0 -48 -51 -81 -98 -64 -11 4 -42 44 -67 88 -26 45 -53 81 -62 81
-21 0 -226 -207 -221 -222 3 -7 38 -32 79 -55 41 -23 80 -50 86 -60 32 -42 -2
-103 -57 -103 -17 0 -61 19 -106 45 -41 25 -77 45 -79 45 -9 0 -56 -136 -69
-203 -26 -123 -32 -115 85 -119 92 -3 103 -5 120 -27 25 -30 24 -66 -1 -91
-17 -17 -33 -20 -121 -20 l-102 0 7 -62 c7 -57 56 -228 73 -254 6 -8 35 4 93
37 47 27 93 49 103 49 25 0 67 -45 67 -72 -1 -34 -17 -50 -100 -98 -41 -23
-77 -44 -79 -46 -17 -14 195 -234 225 -234 7 0 31 34 54 75 59 107 97 128 145
80 14 -13 25 -34 25 -45 0 -12 -20 -56 -45 -99 -25 -43 -45 -81 -45 -85 0 -20
218 -86 288 -86 l32 0 0 99 c0 96 1 100 27 121 32 25 69 20 96 -12 13 -16 17
-39 17 -116 l0 -95 61 7 c58 6 235 59 252 75 4 4 -13 43 -38 87 -48 85 -55
122 -27 146 52 45 88 27 147 -73 25 -44 49 -79 54 -79 32 0 238 211 225 231
-2 4 -38 26 -79 49 -97 54 -117 90 -77 141 27 33 67 28 148 -20 39 -22 76 -41
82 -41 19 0 72 164 87 273 l6 47 -104 0 c-116 0 -137 10 -137 67 0 53 28 68
141 71 54 2 99 7 99 11 0 53 -59 263 -83 294 -11 14 -21 11 -87 -28 -86 -51
-130 -57 -154 -23 -21 30 -20 71 2 90 9 8 50 34 90 57 61 35 71 45 63 60 -17
31 -138 155 -183 188 l-44 32 -38 -67 c-53 -92 -73 -112 -112 -112 -37 0 -64
29 -64 68 0 12 20 58 45 100 42 71 44 78 28 90 -24 18 -158 59 -218 67 -27 4
-57 9 -67 11 -14 4 -17 -8 -20 -101 -3 -119 -12 -135 -74 -135 -52 0 -64 27
-64 142 0 72 -3 98 -12 97 -7 -1 -37 -5 -66 -10z m172 -475 c34 -13 41 -48 46
-219 l5 -169 105 -62 c106 -62 134 -92 124 -129 -8 -27 -41 -55 -66 -55 -31 0
-286 152 -297 177 -6 13 -11 111 -11 225 -1 197 -1 203 20 220 23 19 47 22 74
12z"/>
<path d="M640 1725 l0 -1045 240 0 c220 0 241 1 246 18 20 61 70 145 105 177
23 20 71 51 108 68 56 27 77 31 147 31 75 0 89 -3 157 -37 48 -24 90 -53 113
-80 39 -44 84 -130 84 -159 0 -17 41 -18 725 -18 l725 0 0 1045 0 1045 -1325
0 -1325 0 0 -1045z m1941 756 c18 -22 19 -47 19 -608 l0 -584 -25 -24 -24 -25
-576 0 c-576 0 -606 2 -627 34 -4 6 -8 277 -8 603 l0 592 27 21 c26 20 30 20
611 18 l584 -3 19 -24z"/>
<path d="M1480 1875 l0 -495 490 0 490 0 0 495 0 496 -97 -3 -98 -3 -5 -279
-5 -279 -27 -20 c-42 -31 -71 -12 -162 108 -43 57 -84 109 -90 114 -9 7 -35
-20 -96 -101 -95 -124 -116 -142 -154 -132 -54 13 -56 25 -56 321 l0 273 -95
0 -95 0 0 -495z"/>
<path d="M1810 2215 c0 -85 2 -155 4 -155 3 0 26 27 51 60 88 114 116 115 199
8 l56 -71 0 156 0 157 -155 0 -155 0 0 -155z"/>
<path d="M3438 2154 c-5 -4 -8 -337 -8 -741 l0 -733 85 0 c74 0 85 2 85 18 0
35 50 122 95 167 26 26 75 60 113 78 58 27 77 31 147 30 159 -1 281 -83 340
-230 l24 -58 80 -3 81 -3 0 493 c0 542 -4 579 -60 695 -60 121 -177 222 -309
265 -60 19 -94 22 -366 26 -165 2 -303 1 -307 -4z m702 -160 c122 -58 200
-165 220 -301 13 -91 13 -382 -1 -421 -18 -51 -34 -53 -397 -50 -302 3 -333 5
-349 21 -17 16 -18 48 -21 376 -3 353 -2 358 19 385 l22 27 221 -3 221 -3 65
-31z"/>
<path d="M3730 1625 l0 -265 248 2 247 3 0 160 c0 104 -5 173 -13 197 -22 62
-67 113 -123 142 -50 25 -61 26 -206 26 l-153 0 0 -265z"/>
<path d="M1435 831 c-108 -28 -175 -113 -175 -223 1 -195 229 -299 372 -170
149 134 75 372 -122 395 -25 3 -58 2 -75 -2z"/>
<path d="M3904 831 c-179 -45 -234 -274 -95 -393 148 -126 371 -26 371 167 0
92 -43 165 -120 205 -43 22 -114 31 -156 21z"/>
</g>
</svg>
