<?xml version="1.0" standalone="no"?>
<!DOCTYPE svg PUBLIC "-//W3C//DTD SVG 20010904//EN"
 "http://www.w3.org/TR/2001/REC-SVG-20010904/DTD/svg10.dtd">
<svg version="1.0" xmlns="http://www.w3.org/2000/svg"
 width="512.000000pt" height="512.000000pt" viewBox="0 0 512.000000 512.000000"
 preserveAspectRatio="xMidYMid meet">

<g transform="translate(0.000000,512.000000) scale(0.100000,-0.100000)"
fill="#E6D2AA" stroke="none">
<path d="M2538 5100 c-9 -6 -38 -48 -65 -94 l-48 -84 -60 33 c-86 48 -166 69
-239 62 -131 -11 -240 -80 -311 -196 -36 -60 -42 -89 -25 -121 5 -10 125 -84
265 -165 140 -81 257 -151 260 -155 4 -7 -124 -244 -161 -298 -1 -2 -39 19
-85 46 -281 165 -440 252 -462 252 -39 0 -71 -33 -108 -112 -31 -67 -34 -81
-34 -168 0 -82 4 -103 27 -152 34 -73 95 -139 172 -185 33 -20 63 -38 65 -39
2 -2 -15 -35 -38 -73 -62 -106 -55 -149 36 -195 17 -9 35 -21 38 -26 5 -8
-106 -217 -132 -249 -3 -5 -80 35 -96 49 -5 4 4 31 19 60 31 60 27 90 -18 123
-22 16 -33 18 -59 11 -36 -10 -54 -36 -169 -241 -59 -107 -62 -115 -50 -143
15 -36 37 -50 79 -50 34 0 61 22 86 69 8 17 19 31 24 31 15 0 101 -52 97 -58
-2 -4 -309 -536 -682 -1182 -375 -650 -680 -1189 -682 -1205 -2 -20 3 -38 15
-52 19 -21 942 -557 994 -577 24 -8 35 -8 57 5 20 11 227 362 822 1392 483
836 801 1377 810 1377 8 0 355 -92 770 -205 416 -113 765 -205 776 -205 31 1
50 21 108 121 62 106 69 143 34 177 -19 17 -680 402 -1211 706 -59 33 -106 66
-105 71 2 6 39 72 82 148 58 102 83 137 95 134 9 -2 305 -171 658 -375 354
-205 654 -374 668 -378 16 -4 34 0 49 10 31 20 136 204 136 238 0 20 -118 143
-599 622 l-599 597 -168 98 c-381 220 -765 442 -866 500 -105 60 -137 70 -170
51z m368 -1056 l374 -216 -19 -32 c-10 -17 -49 -84 -86 -148 -63 -111 -68
-117 -88 -107 -23 12 -337 193 -537 309 -63 37 -147 86 -187 109 l-72 41 87
150 86 150 33 -20 c19 -11 202 -117 409 -236z m-419 -756 c51 -29 93 -57 93
-61 0 -11 -309 -548 -326 -566 -10 -11 -34 -1 -146 64 -73 42 -137 81 -142 85
-5 5 64 135 159 300 l167 290 52 -30 c28 -16 93 -54 143 -82z m-612 -961 c214
-124 391 -230 393 -235 2 -8 -963 -1695 -1067 -1864 l-17 -28 -399 231 c-220
127 -403 233 -407 237 -4 4 18 51 49 104 l57 97 70 -40 c128 -73 152 -82 183
-67 39 19 60 60 48 95 -8 21 -35 43 -112 88 -56 33 -103 64 -103 68 0 4 25 51
56 103 54 91 57 95 77 81 97 -62 176 -101 206 -101 41 0 71 32 71 78 0 39 -19
58 -110 111 -36 21 -75 44 -87 51 l-22 14 56 97 c31 54 56 99 57 100 1 1 44
-23 95 -53 112 -65 130 -70 169 -50 32 16 42 34 42 71 0 35 -26 59 -125 115
-49 29 -92 53 -94 56 -6 5 103 194 112 194 5 0 53 -25 106 -55 54 -30 107 -55
119 -55 35 0 75 42 75 79 0 42 -20 61 -131 125 l-90 52 54 94 c29 52 58 96 63
98 4 1 51 -22 103 -53 52 -30 107 -55 122 -55 55 0 93 69 66 120 -6 10 -55 44
-110 76 -55 31 -100 58 -100 61 0 18 114 194 123 190 7 -3 187 -106 402 -230z"/>
</g>
</svg>
