<?xml version="1.0" standalone="no"?>
<!DOCTYPE svg PUBLIC "-//W3C//DTD SVG 20010904//EN"
 "http://www.w3.org/TR/2001/REC-SVG-20010904/DTD/svg10.dtd">
<svg version="1.0" xmlns="http://www.w3.org/2000/svg"
 width="512.000000pt" height="512.000000pt" viewBox="0 0 512.000000 512.000000"
 preserveAspectRatio="xMidYMid meet">

<g transform="translate(0.000000,512.000000) scale(0.100000,-0.100000)"
fill="#E6D2AA" stroke="none">
<path d="M3449 4894 c-163 -166 -503 -325 -863 -404 -139 -31 -415 -70 -492
-70 l-46 0 5 -547 c4 -567 7 -603 53 -838 56 -287 172 -573 323 -796 39 -57
77 -112 85 -123 15 -18 22 -18 263 -2 333 22 367 21 428 -8 207 -98 226 -395
32 -506 l-51 -29 68 -31 c37 -17 108 -44 157 -61 l89 -30 93 32 c275 94 525
253 742 473 356 360 557 837 604 1435 6 74 11 336 11 581 l0 446 -132 11
c-526 47 -972 207 -1254 451 l-71 61 -44 -45z m668 -957 c136 -90 172 -152
140 -242 -13 -37 -698 -1139 -753 -1212 -14 -18 -46 -45 -72 -60 -40 -24 -58
-28 -122 -28 -60 0 -83 5 -113 23 -65 38 -418 334 -438 366 -49 80 -35 139 61
263 75 98 104 122 155 130 63 10 102 -5 185 -73 43 -35 83 -64 87 -64 4 0 135
205 291 454 156 250 291 461 300 469 38 34 77 48 127 44 42 -3 67 -14 152 -70z"/>
<path d="M3650 3352 c-166 -268 -313 -497 -327 -509 -43 -41 -72 -31 -184 60
-55 45 -109 88 -119 95 -16 12 -23 6 -64 -50 -25 -35 -46 -67 -47 -71 0 -4 84
-78 187 -163 197 -162 219 -174 262 -136 19 16 714 1118 727 1153 5 13 -55 63
-121 102 -7 4 -126 -178 -314 -481z"/>
<path d="M2475 1924 c-402 -27 -500 -36 -546 -52 -30 -11 -195 -105 -365 -209
-170 -105 -319 -195 -331 -201 -16 -9 -167 -12 -542 -12 l-521 0 0 -465 0
-465 38 0 c20 0 330 18 687 39 l650 39 755 -211 c750 -210 756 -212 850 -211
72 1 109 6 150 22 85 33 1581 846 1612 876 29 28 44 81 34 120 -10 39 -54 85
-95 97 -35 10 -80 -4 -811 -245 -568 -188 -786 -256 -820 -256 -67 0 -759 256
-802 297 -37 34 -67 97 -68 139 0 48 46 267 64 301 20 39 66 78 108 92 18 5
163 33 322 61 158 28 298 58 311 66 29 19 45 56 45 105 0 33 -7 48 -34 75 -34
34 -35 34 -117 33 -46 -1 -304 -16 -574 -35z"/>
<path d="M4290 1679 c-60 -53 -211 -154 -310 -209 -83 -47 -117 -75 -272 -229
-98 -96 -175 -177 -173 -179 2 -2 133 39 292 92 l288 96 116 163 c64 89 122
173 129 186 13 25 7 75 -11 98 -15 18 -19 17 -59 -18z"/>
</g>
</svg>
